<svg xmlns="http://www.w3.org/2000/svg" xmlns:xlink="http://www.w3.org/1999/xlink" width="0" height="0" style="position:absolute">
	
		<symbol id="icon-avia-tickets" viewBox="0 0 134 103">
			<defs><path id="a" d="M756.44 1245.669a1.453 1.453 0 0 1-1.383 1.042c-.138 0-.276-.021-.411-.061l-28.496-8.513.66-2.244a1.965 1.965 0 0 0-1.313-2.439 1.945 1.945 0 0 0-2.42 1.324l-.66 2.244-78.49-23.45a1.458 1.458 0 0 1-.973-1.807l12.58-42.77a1.453 1.453 0 0 1 1.382-1.041c.138 0 .276.02.41.06l78.491 23.45-.815 2.77a1.964 1.964 0 0 0 1.314 2.44 1.95 1.95 0 0 0 2.42-1.323l.814-2.772 28.496 8.513c.37.11.675.36.858.701.184.34.225.734.115 1.107zm6.798 17.35h-29.722v-2.34a1.954 1.954 0 0 0-1.946-1.962 1.954 1.954 0 0 0-1.947 1.962v2.34h-81.867a1.45 1.45 0 0 1-1.443-1.454v-43.187l18 5.377-1.26 1.27-8.802-.972-1.823 1.488 7.004 3.132-2.447 2.467-2.61-.257a.145.145 0 0 0-.118.045l-.914.92a.15.15 0 0 0-.009.21.14.14 0 0 0 .049.035l2.27 1.042c.008.374.153.746.436 1.031.283.286.652.432 1.023.44l1.037 2.285c.033.075.12.108.194.075a.151.151 0 0 0 .043-.03l.914-.926a.15.15 0 0 0 .045-.12l-.256-2.624 2.45-2.469 3.108 7.06 1.476-1.838-.964-8.87 2.403-2.422 4.045 1.208v1.072c0 .362.29.654.648.654h5.13l14.755 4.408h-19.885a.652.652 0 0 0-.648.654v4.164c0 .362.29.654.648.654h38.202l19.227 5.744a1.972 1.972 0 0 0-.061.479v8.457c0 1.084.871 1.962 1.946 1.962a1.954 1.954 0 0 0 1.947-1.962v-7.791l20.023 5.982a5.295 5.295 0 0 0 1.518.222c2.345 0 4.448-1.583 5.115-3.85l4.509-15.328v30.11a1.45 1.45 0 0 1-1.443 1.453zm5.914-65.689l-110.719-33.077a5.304 5.304 0 0 0-1.517-.223c-2.345 0-4.448 1.584-5.115 3.85l-12.58 42.77c-.796 2.704.629 5.546 3.199 6.542v44.373c0 2.965 2.394 5.378 5.336 5.378h115.482c2.942 0 5.336-2.413 5.336-5.378v-43.346l4.178-14.204a5.376 5.376 0 0 0-.426-4.094 5.311 5.311 0 0 0-3.174-2.59z"></path><path id="b" d="M730.265 1217.242a1.945 1.945 0 0 0-2.42 1.323l-2.384 8.108a1.965 1.965 0 0 0 1.313 2.44 1.95 1.95 0 0 0 2.42-1.324l2.385-8.11a1.965 1.965 0 0 0-1.314-2.437z"></path><path id="c" d="M735.036 1201.021a1.945 1.945 0 0 0-2.42 1.324l-2.385 8.109a1.964 1.964 0 0 0 1.313 2.438 1.95 1.95 0 0 0 2.42-1.323l2.385-8.109a1.965 1.965 0 0 0-1.313-2.439z"></path><path id="d" d="M658.041 1185.53l1.884 1.65a1.504 1.504 0 0 0 .984 1.827l.35 2.488a.147.147 0 0 0 .214.111l1.137-.626a.149.149 0 0 0 .077-.102l.495-2.59 3.044-1.665.99 7.659 1.933-1.34 1.578-8.78 3.344-1.83c.723-.394.99-1.306.598-2.035a1.484 1.484 0 0 0-2.02-.603l-3.343 1.829-8.165-3.453-2.167.904 5.832 5.01-3.042 1.664-2.43-.994a.145.145 0 0 0-.126.009l-1.136.62a.15.15 0 0 0-.03.247z"></path><path id="e" d="M718.573 1224.208l-67.115-20.051a.65.65 0 0 0-.807.441l-1.174 3.993a.659.659 0 0 0 .438.813l67.115 20.05a.635.635 0 0 0 .494-.052.654.654 0 0 0 .313-.389l1.174-3.992a.655.655 0 0 0-.438-.813z"></path><path id="f" d="M721.363 1214.728l-67.115-20.051a.645.645 0 0 0-.807.44l-1.174 3.994a.654.654 0 0 0 .438.813l67.115 20.05a.637.637 0 0 0 .494-.052.654.654 0 0 0 .313-.389l1.174-3.992a.655.655 0 0 0-.438-.813z"></path><path id="g" d="M724.153 1205.259l-48.005-14.342a.648.648 0 0 0-.807.441l-1.174 3.993a.658.658 0 0 0 .438.813l48.006 14.341a.637.637 0 0 0 .494-.052.655.655 0 0 0 .313-.389l1.173-3.993a.655.655 0 0 0-.438-.812z"></path><path id="h" d="M725.575 1201.062a.65.65 0 0 0 .622-.468l1.175-3.992a.658.658 0 0 0-.438-.813l-48.006-14.342a.649.649 0 0 0-.807.441l-1.174 3.993a.658.658 0 0 0 .437.812l48.007 14.342a.625.625 0 0 0 .184.027z"></path><path id="i" d="M722.33 1251.83h-70a.651.651 0 0 0-.649.654v4.164c0 .361.29.654.649.654h70.002a.651.651 0 0 0 .649-.654v-4.164a.651.651 0 0 0-.65-.654z"></path><path id="j" d="M722.33 1241.95h-70a.647.647 0 0 0-.459.192.657.657 0 0 0-.19.462v4.164c0 .361.29.654.649.654h70.002a.652.652 0 0 0 .649-.654v-4.164a.652.652 0 0 0-.65-.654z"></path></defs><use fill="#7a96c4" xlink:href="#a" transform="translate(-639 -1164)"></use><use fill="#7a96c4" xlink:href="#b" transform="translate(-639 -1164)"></use><use fill="#7a96c4" xlink:href="#c" transform="translate(-639 -1164)"></use><use fill="#7a96c4" xlink:href="#d" transform="translate(-639 -1164)"></use><use fill="#7a96c4" xlink:href="#e" transform="translate(-639 -1164)"></use><use fill="#7a96c4" xlink:href="#f" transform="translate(-639 -1164)"></use><use fill="#7a96c4" xlink:href="#g" transform="translate(-639 -1164)"></use><use fill="#7a96c4" xlink:href="#h" transform="translate(-639 -1164)"></use><use fill="#7a96c4" xlink:href="#i" transform="translate(-639 -1164)"></use><use fill="#7a96c4" xlink:href="#j" transform="translate(-639 -1164)"></use>
		</symbol>
	
		<symbol id="icon-cancel" viewBox="0 0 64 64">
			<path fill="#1D1D1B" d="M28.941 31.786L.613 60.114a2.014 2.014 0 1 0 2.848 2.849l28.541-28.541 28.541 28.541c.394.394.909.59 1.424.59a2.014 2.014 0 0 0 1.424-3.439L35.064 31.786 63.41 3.438A2.014 2.014 0 1 0 60.562.589L32.003 29.15 3.441.59A2.015 2.015 0 0 0 .593 3.439l28.348 28.347z"></path>
		</symbol>
	
		<symbol id="icon-comment" viewBox="0 0 511.626 511.626">
			<path d="M301.927 327.605c30.926-13.038 55.34-30.785 73.23-53.248 17.888-22.458 26.833-46.915 26.833-73.372 0-26.458-8.945-50.917-26.84-73.376-17.888-22.459-42.298-40.208-73.228-53.249-30.93-13.039-64.571-19.556-100.928-19.556-36.354 0-69.995 6.521-100.927 19.556-30.929 13.04-55.34 30.789-73.229 53.249C8.947 150.072 0 174.527 0 200.986c0 22.648 6.767 43.975 20.28 63.96 13.512 19.981 32.071 36.829 55.671 50.531-1.902 4.572-3.853 8.754-5.852 12.566a72.375 72.375 0 0 1-7.139 10.991 984.53 984.53 0 0 0-6.423 8.275c-1.523 1.998-3.997 4.812-7.425 8.422-3.427 3.617-5.617 5.996-6.567 7.135 0-.191-.381.24-1.143 1.287-.763 1.047-1.191 1.52-1.285 1.431-.096-.103-.477.373-1.143 1.42l-1 1.571-.715 1.423a6.114 6.114 0 0 0-.57 1.712c-.096.567-.144 1.19-.144 1.854s.094 1.28.288 1.854c.381 2.471 1.475 4.466 3.283 5.996 1.807 1.52 3.756 2.279 5.852 2.279h.857c9.515-1.332 17.701-2.854 24.552-4.569 29.312-7.61 55.771-19.797 79.372-36.545 17.129 3.046 33.879 4.568 50.247 4.568 36.357.013 70.002-6.502 100.931-19.542z"></path><path d="M491.354 338.166c13.518-19.889 20.272-41.247 20.272-64.09 0-23.414-7.146-45.316-21.416-65.68-14.277-20.362-33.694-37.305-58.245-50.819 4.374 14.274 6.563 28.739 6.563 43.398 0 25.503-6.368 49.676-19.129 72.519-12.752 22.836-31.025 43.01-54.816 60.524-22.08 15.988-47.205 28.261-75.377 36.829-28.164 8.562-57.573 12.848-88.218 12.848-5.708 0-14.084-.377-25.122-1.137 38.256 25.119 83.177 37.685 134.756 37.685 16.371 0 33.119-1.526 50.251-4.571 23.6 16.755 50.06 28.931 79.37 36.549 6.852 1.718 15.037 3.237 24.554 4.568 2.283.191 4.381-.476 6.283-1.999 1.903-1.522 3.142-3.61 3.71-6.272-.089-1.143 0-1.77.287-1.861.281-.09.233-.712-.144-1.852-.376-1.144-.568-1.715-.568-1.715l-.712-1.424a13.68 13.68 0 0 0-.999-1.567c-.476-.66-.855-1.143-1.143-1.427-.28-.284-.705-.763-1.28-1.424-.568-.66-.951-1.092-1.143-1.283-.951-1.143-3.139-3.521-6.564-7.139-3.429-3.613-5.899-6.42-7.422-8.418a867.888 867.888 0 0 0-6.424-8.282 72.209 72.209 0 0 1-7.139-10.991c-1.998-3.806-3.949-7.995-5.852-12.56 23.602-13.716 42.156-30.513 55.667-50.409z"></path>
		</symbol>
	
		<symbol id="icon-eye" viewBox="0 0 512.001 512.001">
			<path d="M503.698 231.895c-28.735-36.843-65.956-67.318-107.637-88.128-42.548-21.243-88.321-32.265-136.104-32.843-1.316-.036-6.6-.036-7.916 0-47.782.579-93.556 11.6-136.104 32.843-41.681 20.81-78.9 51.284-107.636 88.128a39.145 39.145 0 0 0 0 48.211c28.735 36.843 65.955 67.318 107.636 88.128 42.548 21.243 88.321 32.265 136.104 32.843 1.316.036 6.6.036 7.916 0 47.782-.579 93.556-11.6 136.104-32.843 41.681-20.81 78.901-51.284 107.637-88.128a39.145 39.145 0 0 0 0-48.211zM125.242 349.599c-38.92-19.432-73.678-47.892-100.517-82.303a18.344 18.344 0 0 1 0-22.591c26.838-34.411 61.596-62.871 100.517-82.303a293.777 293.777 0 0 1 33.839-14.33c-29.578 26.588-48.213 65.12-48.213 107.928 0 42.81 18.636 81.345 48.217 107.932a293.754 293.754 0 0 1-33.843-14.333zM256 380.303c-68.542 0-124.304-55.762-124.304-124.304S187.458 131.696 256 131.696 380.304 187.458 380.304 256 324.542 380.303 256 380.303zm231.275-113.008c-26.838 34.411-61.596 62.871-100.517 82.303a293.497 293.497 0 0 1-33.805 14.299c29.558-26.587 48.179-65.107 48.179-107.898 0-42.814-18.64-81.351-48.223-107.939a293.653 293.653 0 0 1 33.85 14.34c38.92 19.432 73.678 47.892 100.517 82.303a18.346 18.346 0 0 1-.001 22.592z"></path><path d="M256 202.804c-29.332 0-53.195 23.863-53.195 53.195s23.863 53.195 53.195 53.195 53.195-23.863 53.195-53.195c.001-29.332-23.862-53.195-53.195-53.195zm0 85.563c-17.847 0-32.368-14.519-32.368-32.368 0-17.848 14.519-32.367 32.368-32.367 17.847 0 32.367 14.519 32.367 32.367.001 17.849-14.52 32.368-32.367 32.368z"></path>
		</symbol>
	
		<symbol id="icon-hotel" viewBox="0 0 80 76">
			<defs><path id="a" d="M1020.231 1202.33c0 2.039-1.249 3.66-2.932 4.232a.988.988 0 0 0-.236.047c-.203.101-.48.128-.723.135-1.057-.028-2.213-.316-2.997-1.102-.826-.69-1.378-1.932-1.378-3.037v-13.804h5.649c1.515 0 2.617 1.242 2.617 2.623v10.905zm-44.132 56.874v-37.272c0-.829-.551-1.38-1.379-1.38h-19.307c-.828 0-1.38.551-1.38 1.38v37.272h-4.136v-41.414h66.196v41.414zm-19.306-35.892h16.552v19.326h-2.759c-.827 0-1.38.552-1.38 1.38 0 .83.553 1.381 1.38 1.381h2.759v13.805h-16.552zm-4.63-14.2a6.988 6.988 0 0 0 3.233-2.344c1.248 1.673 3.245 2.74 5.533 2.74 2.278 0 4.268-1.058 5.517-2.718 1.249 1.66 3.238 2.718 5.516 2.718s4.267-1.058 5.516-2.718c1.25 1.66 3.239 2.718 5.517 2.718 2.278 0 4.267-1.058 5.516-2.718 1.25 1.66 3.239 2.718 5.517 2.718 2.278 0 4.267-1.058 5.516-2.718 1.249 1.66 3.238 2.718 5.516 2.718 2.272 0 4.256-1.052 5.506-2.704.256.33.536.637.838.909.22.177.45.342.684.496a6.999 6.999 0 0 0 3.375 1.265l.03.003a6.824 6.824 0 0 0 .6.03v5.522h-66.196v-5.521h.69a6.522 6.522 0 0 0 1.577-.396zm-6.404-17.688c0-1.519 1.102-2.623 2.617-2.623h5.648v13.528c0 2.065-1.444 3.888-3.32 4.343a4.374 4.374 0 0 1-.63.07c-1.04-.036-2.168-.329-2.938-1.1-.826-.69-1.377-1.932-1.377-3.037zm19.31-2.623v13.805c0 2.346-1.793 4.14-4.138 4.14-2.345 0-4.138-1.794-4.138-4.14V1188.8zm11.025 0v13.805c0 2.346-1.791 4.14-4.133 4.14s-4.133-1.794-4.133-4.14V1188.8zm11.044 0v13.805c0 2.346-1.793 4.14-4.138 4.14-2.345 0-4.138-1.794-4.138-4.14V1188.8zm11.025 0v13.805c0 2.346-1.791 4.14-4.133 4.14s-4.133-1.794-4.133-4.14V1188.8zm10.906 0v13.805c0 .277.022.554.06.829-.367 1.927-2 3.312-4.06 3.312-2.345 0-4.138-1.795-4.138-4.141V1188.8zm-60.69-2.761c-3.034 0-5.379 2.347-5.379 5.384v11.181c0 1.933.828 3.866 2.207 5.108.599.48 1.25.881 1.931 1.182v51.69c0 .827.552 1.38 1.38 1.38h68.965c.827 0 1.38-.553 1.38-1.38v-51.687c2.418-1.163 4.137-3.736 4.137-6.569v-10.905c0-3.037-2.345-5.384-5.517-5.384z"></path><path id="b" d="M987.137 1250.92h-4.138v-9.25c2.069 1.105 3.862 4.556 4.138 9.25zm1.38-27.61c-.277 7.731-2.897 13.253-5.518 14.772v-14.771zm22.068 14.772c-2.758-1.519-5.241-7.04-5.517-14.771h5.517zm-4.138 12.838c.414-4.694 2.207-8.145 4.138-9.25v9.25zm-4.138-5.522c0-.828-.551-1.38-1.379-1.38h-8.276c-.828 0-1.38.552-1.38 1.38 0 .828.552 1.38 1.38 1.38h2.759v4.142h-5.557c-.272-4.916-1.987-9.022-4.512-11.044 3.254-2.736 5.647-8.916 5.906-16.565h11.082c.246 7.65 2.523 13.83 5.908 16.565-2.525 2.022-4.24 6.128-4.513 11.044h-5.556v-4.142h2.759c.828 0 1.38-.552 1.38-1.38zm9.655 8.283c.828 0 1.38-.552 1.38-1.38v-30.37c0-.829-.552-1.381-1.38-1.381H981.62c-.827 0-1.379.552-1.379 1.38v30.37c0 .829.552 1.38 1.38 1.38z"></path><path id="c" d="M967.824 1234.353h-5.513v-5.522h5.513v5.522zm2.76 1.38v-8.282c0-.829-.551-1.381-1.379-1.381h-8.276c-.827 0-1.379.552-1.379 1.38v8.283c0 .829.552 1.38 1.38 1.38h8.275c.828 0 1.38-.551 1.38-1.38z"></path></defs><use fill="#7a96c4" xlink:href="#a" transform="translate(-943 -1186)"></use><use fill="#7a96c4" xlink:href="#b" transform="translate(-943 -1186)"></use><use fill="#7a96c4" xlink:href="#c" transform="translate(-943 -1186)"></use>
		</symbol>
	
		<symbol id="icon-travel-points" viewBox="0 0 80 80">
			<defs><path id="a" d="M414.035 1246.063l-9.372 10.588-9.374-10.588c-5.288-5.972-5.288-15.69 0-21.662 2.514-2.84 5.843-4.404 9.372-4.404 3.53 0 6.86 1.564 9.372 4.404 5.288 5.972 5.288 15.689.002 21.662zm1.997-23.43c-3.028-3.42-7.065-5.303-11.37-5.303-4.306 0-8.343 1.883-11.37 5.303-6.15 6.948-6.15 18.25 0 25.198l11.37 12.844 11.369-12.844c6.15-6.948 6.15-18.25.001-25.198z"></path><path id="b" d="M446.373 1189.777c1.78-2.006 4.132-3.11 6.624-3.11 2.493 0 4.845 1.104 6.625 3.11 3.77 4.25 3.77 11.164 0 15.414l-6.624 7.468-6.625-7.468c-3.771-4.25-3.771-11.164 0-15.414zm6.625 26.899l8.619-9.715c4.637-5.226 4.637-13.728 0-18.954-2.294-2.584-5.355-4.007-8.62-4.007-3.264 0-6.326 1.423-8.619 4.007-4.637 5.226-4.637 13.728 0 18.954l8.62 9.715z"></path><path id="c" d="M458.143 1256.693a1.333 1.333 0 0 0-1.594 1.008 4.626 4.626 0 0 1-.884 1.856 1.332 1.332 0 1 0 2.096 1.648 7.347 7.347 0 0 0 1.39-2.918 1.334 1.334 0 0 0-1.008-1.594z"></path><path id="d" d="M430.658 1225.334a4.69 4.69 0 0 1-1.67-.307 1.338 1.338 0 0 0-1.72.77 1.336 1.336 0 0 0 .77 1.722c.835.317 1.713.48 2.617.481h.476a1.332 1.332 0 1 0 0-2.666h-.473z"></path><path id="e" d="M427.496 1216.901c.24 0 .484-.065.704-.201a4.602 4.602 0 0 1 1.938-.67 1.335 1.335 0 0 0-.292-2.652 7.23 7.23 0 0 0-3.058 1.058 1.333 1.333 0 0 0 .708 2.465z"></path><path id="f" d="M412.09 1261.33h-2.667a1.332 1.332 0 1 0 0 2.667h2.667a1.332 1.332 0 1 0 0-2.667z"></path><path id="g" d="M435.99 1237.33a7.25 7.25 0 0 0-.342.008 1.333 1.333 0 0 0 .054 2.665l.056-.001 2.612-.005a1.332 1.332 0 1 0 0-2.667h-2.38z"></path><path id="h" d="M435.323 1215.997h2.667a1.332 1.332 0 1 0 0-2.667h-2.667a1.332 1.332 0 1 0 0 2.667z"></path><path id="i" d="M451.703 1237.33a1.332 1.332 0 1 0 0 2.667h2.667a1.332 1.332 0 1 0 0-2.667h-2.667z"></path><path id="j" d="M456.463 1226.663c0-.737-.596-1.333-1.333-1.333h-2.667a1.332 1.332 0 1 0 0 2.667h2.667c.736 0 1.333-.596 1.333-1.334z"></path><path id="k" d="M443.703 1239.997h2.667a1.332 1.332 0 1 0 0-2.667h-2.667a1.332 1.332 0 1 0 0 2.667z"></path><path id="l" d="M445.99 1215.997a1.332 1.332 0 1 0 0-2.667h-2.667a1.332 1.332 0 1 0 0 2.667h2.667z"></path><path id="m" d="M436.463 1225.33a1.332 1.332 0 1 0 0 2.667h2.667a1.332 1.332 0 1 0 0-2.667h-2.667z"></path><path id="n" d="M448.463 1226.663c0-.737-.596-1.333-1.333-1.333h-2.667a1.332 1.332 0 1 0 0 2.667h2.667c.736 0 1.333-.596 1.333-1.334z"></path><path id="o" d="M467.23 1231.513a1.333 1.333 0 1 0-2.633.423c.038.237.06.479.056.736 0 .448-.064.89-.189 1.317a1.333 1.333 0 1 0 2.56.75 7.352 7.352 0 0 0 .296-2.058 7.089 7.089 0 0 0-.09-1.168z"></path><path id="p" d="M444.09 1261.33h-2.667a1.332 1.332 0 1 0 0 2.667h2.667a1.332 1.332 0 1 0 0-2.667z"></path><path id="q" d="M436.09 1261.33h-2.667a1.332 1.332 0 1 0 0 2.667h2.667a1.332 1.332 0 1 0 0-2.667z"></path><path id="r" d="M450.753 1250.663c0-.737-.596-1.333-1.333-1.333h-2.667a1.332 1.332 0 1 0 0 2.667h2.667c.736 0 1.333-.596 1.333-1.334z"></path><path id="s" d="M442.753 1250.663c0-.737-.596-1.333-1.333-1.333h-2.667a1.332 1.332 0 1 0 0 2.667h2.667c.736 0 1.333-.596 1.333-1.334z"></path><path id="t" d="M451.987 1261.33h-2.574a1.332 1.332 0 1 0 0 2.667l2.628-.002.039-1.333v1.333c.737 0 1.287-.596 1.287-1.333 0-.736-.643-1.332-1.38-1.332z"></path><path id="u" d="M456.706 1254.295a1.333 1.333 0 0 0 1.047-2.157 7.391 7.391 0 0 0-2.505-2.038 1.334 1.334 0 0 0-1.188 2.388c.617.306 1.17.755 1.596 1.299.264.333.654.508 1.05.508z"></path><path id="v" d="M461.793 1236.974a4.63 4.63 0 0 1-1.803.362h-.287a1.332 1.332 0 1 0 0 2.666h.287a7.28 7.28 0 0 0 2.833-.569 1.332 1.332 0 1 0-1.03-2.459z"></path><path id="w" d="M425.368 1223.802a1.335 1.335 0 0 0 .85-1.684 4.658 4.658 0 0 1-.194-2.05 1.332 1.332 0 0 0-1.156-1.489 1.327 1.327 0 0 0-1.49 1.156 7.34 7.34 0 0 0 .305 3.216 1.335 1.335 0 0 0 1.685.85z"></path><path id="x" d="M420.09 1261.33h-2.667a1.332 1.332 0 1 0 0 2.667h2.667a1.332 1.332 0 1 0 0-2.667z"></path><path id="y" d="M433.496 1251.46a1.333 1.333 0 0 0 .556-2.546 4.717 4.717 0 0 1-1.637-1.248 1.332 1.332 0 1 0-2.042 1.716 7.384 7.384 0 0 0 2.57 1.956c.18.081.368.121.553.121z"></path><path id="z" d="M463.657 1226.316a7.25 7.25 0 0 0-3.09-.962 1.333 1.333 0 1 0-.208 2.659 4.59 4.59 0 0 1 1.96.61 1.334 1.334 0 0 0 1.337-2.307z"></path><path id="A" d="M428.09 1261.33h-2.667a1.332 1.332 0 1 0 0 2.667h2.667a1.332 1.332 0 1 0 0-2.667z"></path><path id="B" d="M431.404 1243.787a4.64 4.64 0 0 1 .825-1.884 1.334 1.334 0 0 0-2.148-1.58 7.307 7.307 0 0 0-1.297 2.962 1.335 1.335 0 0 0 1.31 1.586 1.342 1.342 0 0 0 1.31-1.084z"></path><path id="C" d="M453.323 1191.997a4.672 4.672 0 0 1 4.667 4.666 4.672 4.672 0 0 1-4.667 4.667 4.672 4.672 0 0 1-4.666-4.667 4.673 4.673 0 0 1 4.666-4.666zm0 12c4.043 0 7.334-3.291 7.334-7.334 0-4.042-3.291-7.333-7.334-7.333-4.042 0-7.333 3.29-7.333 7.333s3.29 7.334 7.333 7.334z"></path><path id="D" d="M404.655 1238.653a5.334 5.334 0 0 1-5.328-5.328 5.334 5.334 0 0 1 5.328-5.328 5.334 5.334 0 0 1 5.328 5.328 5.334 5.334 0 0 1-5.328 5.328zm.005-13.323c-4.412 0-8 3.588-8 8s3.588 8 8 8 8-3.588 8-8-3.588-8-8-8z"></path></defs><use fill="#7a96c4" xlink:href="#a" transform="translate(-388 -1184)"></use><use fill="#7a96c4" xlink:href="#b" transform="translate(-388 -1184)"></use><use fill="#7a96c4" xlink:href="#c" transform="translate(-388 -1184)"></use><use fill="#7a96c4" xlink:href="#d" transform="translate(-388 -1184)"></use><use fill="#7a96c4" xlink:href="#e" transform="translate(-388 -1184)"></use><use fill="#7a96c4" xlink:href="#f" transform="translate(-388 -1184)"></use><use fill="#7a96c4" xlink:href="#g" transform="translate(-388 -1184)"></use><use fill="#7a96c4" xlink:href="#h" transform="translate(-388 -1184)"></use><use fill="#7a96c4" xlink:href="#i" transform="translate(-388 -1184)"></use><use fill="#7a96c4" xlink:href="#j" transform="translate(-388 -1184)"></use><use fill="#7a96c4" xlink:href="#k" transform="translate(-388 -1184)"></use><use fill="#7a96c4" xlink:href="#l" transform="translate(-388 -1184)"></use><use fill="#7a96c4" xlink:href="#m" transform="translate(-388 -1184)"></use><use fill="#7a96c4" xlink:href="#n" transform="translate(-388 -1184)"></use><use fill="#7a96c4" xlink:href="#o" transform="translate(-388 -1184)"></use><use fill="#7a96c4" xlink:href="#p" transform="translate(-388 -1184)"></use><use fill="#7a96c4" xlink:href="#q" transform="translate(-388 -1184)"></use><use fill="#7a96c4" xlink:href="#r" transform="translate(-388 -1184)"></use><use fill="#7a96c4" xlink:href="#s" transform="translate(-388 -1184)"></use><use fill="#7a96c4" xlink:href="#t" transform="translate(-388 -1184)"></use><use fill="#7a96c4" xlink:href="#u" transform="translate(-388 -1184)"></use><use fill="#7a96c4" xlink:href="#v" transform="translate(-388 -1184)"></use><use fill="#7a96c4" xlink:href="#w" transform="translate(-388 -1184)"></use><use fill="#7a96c4" xlink:href="#x" transform="translate(-388 -1184)"></use><use fill="#7a96c4" xlink:href="#y" transform="translate(-388 -1184)"></use><use fill="#7a96c4" xlink:href="#z" transform="translate(-388 -1184)"></use><use fill="#7a96c4" xlink:href="#A" transform="translate(-388 -1184)"></use><use fill="#7a96c4" xlink:href="#B" transform="translate(-388 -1184)"></use><use fill="#7a96c4" xlink:href="#C" transform="translate(-388 -1184)"></use><use fill="#7a96c4" xlink:href="#D" transform="translate(-388 -1184)"></use>
		</symbol>
	
</svg>
