<svg xmlns="http://www.w3.org/2000/svg" xmlns:xlink="http://www.w3.org/1999/xlink"  viewBox="0 0 80 80"><defs><path id="ce0wa" d="M414.035 1246.063l-9.372 10.588-9.374-10.588c-5.288-5.972-5.288-15.69 0-21.662 2.514-2.84 5.843-4.404 9.372-4.404 3.53 0 6.86 1.564 9.372 4.404 5.288 5.972 5.288 15.689.002 21.662zm1.997-23.43c-3.028-3.42-7.065-5.303-11.37-5.303-4.306 0-8.343 1.883-11.37 5.303-6.15 6.948-6.15 18.25 0 25.198l11.37 12.844 11.369-12.844c6.15-6.948 6.15-18.25.001-25.198z"/><path id="ce0wb" d="M446.373 1189.777c1.78-2.006 4.132-3.11 6.624-3.11 2.493 0 4.845 1.104 6.625 3.11 3.77 4.25 3.77 11.164 0 15.414l-6.624 7.468-6.625-7.468c-3.771-4.25-3.771-11.164 0-15.414zm6.625 26.899l8.619-9.715c4.637-5.226 4.637-13.728 0-18.954-2.294-2.584-5.355-4.007-8.62-4.007-3.264 0-6.326 1.423-8.619 4.007-4.637 5.226-4.637 13.728 0 18.954l8.62 9.715z"/><path id="ce0wc" d="M458.143 1256.693a1.333 1.333 0 0 0-1.594 1.008 4.626 4.626 0 0 1-.884 1.856 1.332 1.332 0 1 0 2.096 1.648 7.347 7.347 0 0 0 1.39-2.918 1.334 1.334 0 0 0-1.008-1.594z"/><path id="ce0wd" d="M430.658 1225.334a4.69 4.69 0 0 1-1.67-.307 1.338 1.338 0 0 0-1.72.77 1.336 1.336 0 0 0 .77 1.722c.835.317 1.713.48 2.617.481h.476a1.332 1.332 0 1 0 0-2.666h-.473z"/><path id="ce0we" d="M427.496 1216.901c.24 0 .484-.065.704-.201a4.602 4.602 0 0 1 1.938-.67 1.335 1.335 0 0 0-.292-2.652 7.23 7.23 0 0 0-3.058 1.058 1.333 1.333 0 0 0 .708 2.465z"/><path id="ce0wf" d="M412.09 1261.33h-2.667a1.332 1.332 0 1 0 0 2.667h2.667a1.332 1.332 0 1 0 0-2.667z"/><path id="ce0wg" d="M435.99 1237.33a7.25 7.25 0 0 0-.342.008 1.333 1.333 0 0 0 .054 2.665l.056-.001 2.612-.005a1.332 1.332 0 1 0 0-2.667h-2.38z"/><path id="ce0wh" d="M435.323 1215.997h2.667a1.332 1.332 0 1 0 0-2.667h-2.667a1.332 1.332 0 1 0 0 2.667z"/><path id="ce0wi" d="M451.703 1237.33a1.332 1.332 0 1 0 0 2.667h2.667a1.332 1.332 0 1 0 0-2.667h-2.667z"/><path id="ce0wj" d="M456.463 1226.663c0-.737-.596-1.333-1.333-1.333h-2.667a1.332 1.332 0 1 0 0 2.667h2.667c.736 0 1.333-.596 1.333-1.334z"/><path id="ce0wk" d="M443.703 1239.997h2.667a1.332 1.332 0 1 0 0-2.667h-2.667a1.332 1.332 0 1 0 0 2.667z"/><path id="ce0wl" d="M445.99 1215.997a1.332 1.332 0 1 0 0-2.667h-2.667a1.332 1.332 0 1 0 0 2.667h2.667z"/><path id="ce0wm" d="M436.463 1225.33a1.332 1.332 0 1 0 0 2.667h2.667a1.332 1.332 0 1 0 0-2.667h-2.667z"/><path id="ce0wn" d="M448.463 1226.663c0-.737-.596-1.333-1.333-1.333h-2.667a1.332 1.332 0 1 0 0 2.667h2.667c.736 0 1.333-.596 1.333-1.334z"/><path id="ce0wo" d="M467.23 1231.513a1.333 1.333 0 1 0-2.633.423c.038.237.06.479.056.736 0 .448-.064.89-.189 1.317a1.333 1.333 0 1 0 2.56.75c.196-.671.296-1.366.296-2.058a7.089 7.089 0 0 0-.09-1.168z"/><path id="ce0wp" d="M444.09 1261.33h-2.667a1.332 1.332 0 1 0 0 2.667h2.667a1.332 1.332 0 1 0 0-2.667z"/><path id="ce0wq" d="M436.09 1261.33h-2.667a1.332 1.332 0 1 0 0 2.667h2.667a1.332 1.332 0 1 0 0-2.667z"/><path id="ce0wr" d="M450.753 1250.663c0-.737-.596-1.333-1.333-1.333h-2.667a1.332 1.332 0 1 0 0 2.667h2.667c.736 0 1.333-.596 1.333-1.334z"/><path id="ce0ws" d="M442.753 1250.663c0-.737-.596-1.333-1.333-1.333h-2.667a1.332 1.332 0 1 0 0 2.667h2.667c.736 0 1.333-.596 1.333-1.334z"/><path id="ce0wt" d="M451.987 1261.33h-2.574a1.332 1.332 0 1 0 0 2.667l2.628-.002.039-1.333v1.333c.737 0 1.287-.596 1.287-1.333 0-.736-.643-1.332-1.38-1.332z"/><path id="ce0wu" d="M456.706 1254.295a1.333 1.333 0 0 0 1.047-2.157 7.391 7.391 0 0 0-2.505-2.038 1.334 1.334 0 0 0-1.188 2.388c.617.306 1.17.755 1.596 1.299.264.333.654.508 1.05.508z"/><path id="ce0wv" d="M461.793 1236.974a4.63 4.63 0 0 1-1.803.362h-.287a1.332 1.332 0 1 0 0 2.666h.287a7.28 7.28 0 0 0 2.833-.569 1.332 1.332 0 1 0-1.03-2.459z"/><path id="ce0ww" d="M425.368 1223.802c.699-.231 1.08-.984.85-1.684a4.658 4.658 0 0 1-.194-2.05 1.332 1.332 0 0 0-1.156-1.489 1.327 1.327 0 0 0-1.49 1.156 7.34 7.34 0 0 0 .305 3.216 1.335 1.335 0 0 0 1.685.85z"/><path id="ce0wx" d="M420.09 1261.33h-2.667a1.332 1.332 0 1 0 0 2.667h2.667a1.332 1.332 0 1 0 0-2.667z"/><path id="ce0wy" d="M433.496 1251.46a1.333 1.333 0 0 0 .556-2.546 4.717 4.717 0 0 1-1.637-1.248 1.332 1.332 0 1 0-2.042 1.716 7.384 7.384 0 0 0 2.57 1.956c.18.081.368.121.553.121z"/><path id="ce0wz" d="M463.657 1226.316a7.25 7.25 0 0 0-3.09-.962 1.333 1.333 0 1 0-.208 2.659 4.59 4.59 0 0 1 1.96.61 1.334 1.334 0 0 0 1.337-2.307z"/><path id="ce0wA" d="M428.09 1261.33h-2.667a1.332 1.332 0 1 0 0 2.667h2.667a1.332 1.332 0 1 0 0-2.667z"/><path id="ce0wB" d="M431.404 1243.787c.132-.686.41-1.319.825-1.884a1.334 1.334 0 0 0-2.148-1.58 7.307 7.307 0 0 0-1.297 2.962 1.335 1.335 0 0 0 1.31 1.586 1.342 1.342 0 0 0 1.31-1.084z"/><path id="ce0wC" d="M453.323 1191.997a4.672 4.672 0 0 1 4.667 4.666 4.672 4.672 0 0 1-4.667 4.667 4.672 4.672 0 0 1-4.666-4.667 4.673 4.673 0 0 1 4.666-4.666zm0 12c4.043 0 7.334-3.291 7.334-7.334 0-4.042-3.291-7.333-7.334-7.333-4.042 0-7.333 3.29-7.333 7.333s3.29 7.334 7.333 7.334z"/><path id="ce0wD" d="M404.655 1238.653a5.334 5.334 0 0 1-5.328-5.328 5.334 5.334 0 0 1 5.328-5.328 5.334 5.334 0 0 1 5.328 5.328 5.334 5.334 0 0 1-5.328 5.328zm.005-13.323c-4.412 0-8 3.588-8 8s3.588 8 8 8 8-3.588 8-8-3.588-8-8-8z"/></defs><g><g transform="translate(-388 -1184)"><g><use fill="#7a96c4" xlink:href="#ce0wa"/></g><g><use fill="#7a96c4" xlink:href="#ce0wb"/></g><g><use fill="#7a96c4" xlink:href="#ce0wc"/></g><g><use fill="#7a96c4" xlink:href="#ce0wd"/></g><g><use fill="#7a96c4" xlink:href="#ce0we"/></g><g><use fill="#7a96c4" xlink:href="#ce0wf"/></g><g><use fill="#7a96c4" xlink:href="#ce0wg"/></g><g><use fill="#7a96c4" xlink:href="#ce0wh"/></g><g><use fill="#7a96c4" xlink:href="#ce0wi"/></g><g><use fill="#7a96c4" xlink:href="#ce0wj"/></g><g><use fill="#7a96c4" xlink:href="#ce0wk"/></g><g><use fill="#7a96c4" xlink:href="#ce0wl"/></g><g><use fill="#7a96c4" xlink:href="#ce0wm"/></g><g><use fill="#7a96c4" xlink:href="#ce0wn"/></g><g><use fill="#7a96c4" xlink:href="#ce0wo"/></g><g><use fill="#7a96c4" xlink:href="#ce0wp"/></g><g><use fill="#7a96c4" xlink:href="#ce0wq"/></g><g><use fill="#7a96c4" xlink:href="#ce0wr"/></g><g><use fill="#7a96c4" xlink:href="#ce0ws"/></g><g><use fill="#7a96c4" xlink:href="#ce0wt"/></g><g><use fill="#7a96c4" xlink:href="#ce0wu"/></g><g><use fill="#7a96c4" xlink:href="#ce0wv"/></g><g><use fill="#7a96c4" xlink:href="#ce0ww"/></g><g><use fill="#7a96c4" xlink:href="#ce0wx"/></g><g><use fill="#7a96c4" xlink:href="#ce0wy"/></g><g><use fill="#7a96c4" xlink:href="#ce0wz"/></g><g><use fill="#7a96c4" xlink:href="#ce0wA"/></g><g><use fill="#7a96c4" xlink:href="#ce0wB"/></g><g><use fill="#7a96c4" xlink:href="#ce0wC"/></g><g><use fill="#7a96c4" xlink:href="#ce0wD"/></g></g></g></svg>