<svg xmlns="http://www.w3.org/2000/svg" xmlns:xlink="http://www.w3.org/1999/xlink"  viewBox="0 0 134 103"><defs><path id="nxa2a" d="M756.44 1245.669a1.453 1.453 0 0 1-1.383 1.042c-.138 0-.276-.021-.411-.061l-28.496-8.513.66-2.244a1.965 1.965 0 0 0-1.313-2.439 1.945 1.945 0 0 0-2.42 1.324l-.66 2.244-78.49-23.45a1.458 1.458 0 0 1-.973-1.807l12.58-42.77a1.453 1.453 0 0 1 1.382-1.041c.138 0 .276.02.41.06l78.491 23.45-.815 2.77a1.964 1.964 0 0 0 1.314 2.44 1.95 1.95 0 0 0 2.42-1.323l.814-2.772 28.496 8.513c.37.11.675.36.858.701.184.34.225.734.115 1.107zm6.798 17.35h-29.722v-2.34a1.954 1.954 0 0 0-1.946-1.962 1.954 1.954 0 0 0-1.947 1.962v2.34h-81.867a1.45 1.45 0 0 1-1.443-1.454v-43.187l18 5.377-1.26 1.27-8.802-.972-1.823 1.488 7.004 3.132-2.447 2.467-2.61-.257a.145.145 0 0 0-.118.045l-.914.92a.15.15 0 0 0-.009.21.14.14 0 0 0 .049.035l2.27 1.042c.008.374.153.746.436 1.031.283.286.652.432 1.023.44l1.037 2.285c.033.075.12.108.194.075a.151.151 0 0 0 .043-.03l.914-.926a.15.15 0 0 0 .045-.12l-.256-2.624 2.45-2.469 3.108 7.06 1.476-1.838-.964-8.87 2.403-2.422 4.045 1.208v1.072c0 .362.29.654.648.654h5.13l14.755 4.408h-19.885a.652.652 0 0 0-.648.654v4.164c0 .362.29.654.648.654h38.202l19.227 5.744a1.972 1.972 0 0 0-.061.479v8.457c0 1.084.871 1.962 1.946 1.962a1.954 1.954 0 0 0 1.947-1.962v-7.791l20.023 5.982a5.295 5.295 0 0 0 1.518.222c2.345 0 4.448-1.583 5.115-3.85l4.509-15.328v30.11a1.45 1.45 0 0 1-1.443 1.453zm5.914-65.689l-110.719-33.077a5.304 5.304 0 0 0-1.517-.223c-2.345 0-4.448 1.584-5.115 3.85l-12.58 42.77c-.796 2.704.629 5.546 3.199 6.542v44.373c0 2.965 2.394 5.378 5.336 5.378h115.482c2.942 0 5.336-2.413 5.336-5.378v-43.346l4.178-14.204a5.376 5.376 0 0 0-.426-4.094 5.311 5.311 0 0 0-3.174-2.59z"/><path id="nxa2b" d="M730.265 1217.242a1.945 1.945 0 0 0-2.42 1.323l-2.384 8.108a1.965 1.965 0 0 0 1.313 2.44 1.95 1.95 0 0 0 2.42-1.324l2.385-8.11a1.965 1.965 0 0 0-1.314-2.437z"/><path id="nxa2c" d="M735.036 1201.021a1.945 1.945 0 0 0-2.42 1.324l-2.385 8.109a1.964 1.964 0 0 0 1.313 2.438 1.95 1.95 0 0 0 2.42-1.323l2.385-8.109a1.965 1.965 0 0 0-1.313-2.439z"/><path id="nxa2d" d="M658.041 1185.53l1.884 1.65a1.504 1.504 0 0 0 .984 1.827l.35 2.488a.147.147 0 0 0 .214.111l1.137-.626a.149.149 0 0 0 .077-.102l.495-2.59 3.044-1.665.99 7.659 1.933-1.34 1.578-8.78 3.344-1.83c.723-.394.99-1.306.598-2.035a1.484 1.484 0 0 0-2.02-.603l-3.343 1.829-8.165-3.453-2.167.904 5.832 5.01-3.042 1.664-2.43-.994a.145.145 0 0 0-.126.009l-1.136.62a.15.15 0 0 0-.03.247z"/><path id="nxa2e" d="M718.573 1224.208l-67.115-20.051a.65.65 0 0 0-.807.441l-1.174 3.993a.659.659 0 0 0 .438.813l67.115 20.05a.635.635 0 0 0 .494-.052.654.654 0 0 0 .313-.389l1.174-3.992a.655.655 0 0 0-.438-.813z"/><path id="nxa2f" d="M721.363 1214.728l-67.115-20.051a.645.645 0 0 0-.807.44l-1.174 3.994a.654.654 0 0 0 .438.813l67.115 20.05a.637.637 0 0 0 .494-.052.654.654 0 0 0 .313-.389l1.174-3.992a.655.655 0 0 0-.438-.813z"/><path id="nxa2g" d="M724.153 1205.259l-48.005-14.342a.648.648 0 0 0-.807.441l-1.174 3.993a.658.658 0 0 0 .438.813l48.006 14.341a.637.637 0 0 0 .494-.052.655.655 0 0 0 .313-.389l1.173-3.993a.655.655 0 0 0-.438-.812z"/><path id="nxa2h" d="M725.575 1201.062a.65.65 0 0 0 .622-.468l1.175-3.992a.658.658 0 0 0-.438-.813l-48.006-14.342a.649.649 0 0 0-.807.441l-1.174 3.993a.658.658 0 0 0 .437.812l48.007 14.342a.625.625 0 0 0 .184.027z"/><path id="nxa2i" d="M722.33 1251.83H652.33a.651.651 0 0 0-.649.654v4.164c0 .361.29.654.649.654h70.002a.651.651 0 0 0 .649-.654v-4.164a.651.651 0 0 0-.65-.654z"/><path id="nxa2j" d="M722.33 1241.95H652.33a.647.647 0 0 0-.459.192.657.657 0 0 0-.19.462v4.164c0 .361.29.654.649.654h70.002a.652.652 0 0 0 .649-.654v-4.164a.652.652 0 0 0-.65-.654z"/></defs><g><g transform="translate(-639 -1164)"><use fill="#7a96c4" xlink:href="#nxa2a"/></g><g transform="translate(-639 -1164)"><use fill="#7a96c4" xlink:href="#nxa2b"/></g><g transform="translate(-639 -1164)"><use fill="#7a96c4" xlink:href="#nxa2c"/></g><g transform="translate(-639 -1164)"><use fill="#7a96c4" xlink:href="#nxa2d"/></g><g transform="translate(-639 -1164)"><use fill="#7a96c4" xlink:href="#nxa2e"/></g><g transform="translate(-639 -1164)"><use fill="#7a96c4" xlink:href="#nxa2f"/></g><g transform="translate(-639 -1164)"><use fill="#7a96c4" xlink:href="#nxa2g"/></g><g transform="translate(-639 -1164)"><use fill="#7a96c4" xlink:href="#nxa2h"/></g><g transform="translate(-639 -1164)"><use fill="#7a96c4" xlink:href="#nxa2i"/></g><g transform="translate(-639 -1164)"><use fill="#7a96c4" xlink:href="#nxa2j"/></g></g></svg>