<svg xmlns="http://www.w3.org/2000/svg" xmlns:xlink="http://www.w3.org/1999/xlink" viewBox="0 0 80 76"><defs><path id="jrlta" d="M1020.231 1202.33c0 2.039-1.249 3.66-2.932 4.232-.079.007-.157.02-.236.047-.203.101-.48.128-.723.135-1.057-.028-2.213-.316-2.997-1.102-.826-.69-1.378-1.932-1.378-3.037v-13.804h5.649c1.515 0 2.617 1.242 2.617 2.623v10.905zm-44.132 56.874v-37.272c0-.829-.551-1.38-1.379-1.38h-19.307c-.828 0-1.38.551-1.38 1.38v37.272h-4.136v-41.414h66.196v41.414zm-19.306-35.892h16.552v19.326h-2.759c-.827 0-1.38.552-1.38 1.38 0 .83.553 1.381 1.38 1.381h2.759v13.805h-16.552zm-4.63-14.2a6.988 6.988 0 0 0 3.233-2.344c1.248 1.673 3.245 2.74 5.533 2.74 2.278 0 4.268-1.058 5.517-2.718 1.249 1.66 3.238 2.718 5.516 2.718s4.267-1.058 5.516-2.718c1.25 1.66 3.239 2.718 5.517 2.718 2.278 0 4.267-1.058 5.516-2.718 1.25 1.66 3.239 2.718 5.517 2.718 2.278 0 4.267-1.058 5.516-2.718 1.249 1.66 3.238 2.718 5.516 2.718 2.272 0 4.256-1.052 5.506-2.704.256.33.536.637.838.909.22.177.45.342.684.496a6.999 6.999 0 0 0 3.375 1.265l.03.003a6.824 6.824 0 0 0 .6.03v5.522h-66.196v-5.521h.69a6.522 6.522 0 0 0 1.577-.396zm-6.404-17.688c0-1.519 1.102-2.623 2.617-2.623h5.648v13.528c0 2.065-1.444 3.888-3.32 4.343a4.374 4.374 0 0 1-.63.07c-1.04-.036-2.168-.329-2.938-1.1-.826-.69-1.377-1.932-1.377-3.037zm19.31-2.623v13.805c0 2.346-1.793 4.14-4.138 4.14-2.345 0-4.138-1.794-4.138-4.14V1188.8zm11.025 0v13.805c0 2.346-1.791 4.14-4.133 4.14s-4.133-1.794-4.133-4.14V1188.8zm11.044 0v13.805c0 2.346-1.793 4.14-4.138 4.14-2.345 0-4.138-1.794-4.138-4.14V1188.8zm11.025 0v13.805c0 2.346-1.791 4.14-4.133 4.14s-4.133-1.794-4.133-4.14V1188.8zm10.906 0v13.805c0 .277.022.554.06.829-.367 1.927-2 3.312-4.06 3.312-2.345 0-4.138-1.795-4.138-4.141V1188.8zm-60.69-2.761c-3.034 0-5.379 2.347-5.379 5.384v11.181c0 1.933.828 3.866 2.207 5.108.599.48 1.25.881 1.931 1.182v51.69c0 .827.552 1.38 1.38 1.38h68.965c.827 0 1.38-.553 1.38-1.38v-51.687c2.418-1.163 4.137-3.736 4.137-6.569v-10.905c0-3.037-2.345-5.384-5.517-5.384z"/><path id="jrltb" d="M987.137 1250.92h-4.138v-9.25c2.069 1.105 3.862 4.556 4.138 9.25zm1.38-27.61c-.277 7.731-2.897 13.253-5.518 14.772v-14.771zm22.068 14.772c-2.758-1.519-5.241-7.04-5.517-14.771h5.517zm-4.138 12.838c.414-4.694 2.207-8.145 4.138-9.25v9.25zm-4.138-5.522c0-.828-.551-1.38-1.379-1.38h-8.276c-.828 0-1.38.552-1.38 1.38 0 .828.552 1.38 1.38 1.38h2.759v4.142h-5.557c-.272-4.916-1.987-9.022-4.512-11.044 3.254-2.736 5.647-8.916 5.906-16.565h11.082c.246 7.65 2.523 13.83 5.908 16.565-2.525 2.022-4.24 6.128-4.513 11.044h-5.556v-4.142h2.759c.828 0 1.38-.552 1.38-1.38zm9.655 8.283c.828 0 1.38-.552 1.38-1.38v-30.37c0-.829-.552-1.381-1.38-1.381H981.62c-.827 0-1.379.552-1.379 1.38v30.37c0 .829.552 1.38 1.38 1.38z"/><path id="jrltc" d="M967.824 1234.353h-5.513v-5.522h5.513v5.522zm2.76 1.38v-8.282c0-.829-.551-1.381-1.379-1.381h-8.276c-.827 0-1.379.552-1.379 1.38v8.283c0 .829.552 1.38 1.38 1.38h8.275c.828 0 1.38-.551 1.38-1.38z"/></defs><g><g transform="translate(-943 -1186)"><g><use fill="#7a96c4" xlink:href="#jrlta"/></g><g><use fill="#7a96c4" xlink:href="#jrltb"/></g><g><use fill="#7a96c4" xlink:href="#jrltc"/></g></g></g></svg>